<svg preserveAspectRatio="none" width="100%" height="100%" overflow="visible" style="display: block;" viewBox="0 0 39.1786 38.6876" fill="none" xmlns="http://www.w3.org/2000/svg">
<g id="Group 6589">
<path id="Icon" d="M38.1426 6.95908C37.7074 6.96649 37.2724 6.96298 36.8381 6.9487C35.2897 6.8979 33.7506 6.7094 32.2454 6.3843C27.7672 5.42384 23.6092 3.22558 20.3182 0.139273C20.1146 -0.0510521 19.7919 -0.0417367 19.58 0.139268C14.9997 4.07005 9.0174 6.21733 3.06033 6.11963C2.63998 6.11441 2.21997 6.09877 1.80081 6.07264C1.39834 6.04771 1.00262 6.34695 0.897018 6.73611C0.316646 8.87613 0.0169419 11.0945 0.00113326 13.3145C-0.0434482 18.0077 1.22823 22.7223 3.64774 26.7574C7.14876 32.6619 13.0779 37.0614 19.7278 38.669C19.8239 38.6948 20.074 38.6927 20.1706 38.669C31.4417 35.8132 39.6966 24.6271 39.1532 13.3145C39.1486 13.1578 39.1425 13.0013 39.135 12.8449C39.0392 10.8458 38.7059 8.8645 38.1426 6.95908C38.5768 8.89806 38.7797 10.8799 38.755 12.8517C38.7531 13.0061 38.7498 13.1602 38.7452 13.3145C38.571 24.4556 30.2497 34.5164 19.7278 36.9456H20.1706C14.0132 35.3073 8.60146 31.1846 5.3649 25.7321C3.1307 22.0031 1.92418 17.6744 1.89731 13.3145C1.88049 11.2519 2.11937 9.187 2.61486 7.18154L1.71107 7.84501C2.16076 7.86288 2.61072 7.86913 3.06033 7.86391C9.43868 7.81843 15.7287 5.28314 20.3182 0.965518L19.58 0.965512C23.1584 4.03285 27.5802 6.06068 32.1765 6.75801C33.7217 6.99519 35.2845 7.08642 36.8381 7.03536C37.2738 7.02108 37.7089 6.99566 38.1426 6.95908Z" fill="var(--stroke-0, #666666)"/>
<path id="Vector 29" d="M11.9022 17.2957C11.9022 17.2957 11.9022 17.2957 11.9022 17.2957C12.1276 17.6719 12.3426 18.0532 12.5566 18.4348C13.9237 20.7327 14.9645 23.3044 17.7936 24.9247L18.2687 25.1573L18.7519 24.786C19.7784 23.9982 20.7114 23.094 21.5675 22.1802C22.9236 20.7218 24.1832 19.2857 25.5413 17.8851L25.5202 17.9035C27 16.4863 28.0766 14.9319 29.3785 13.4649C29.6613 13.132 29.944 12.7987 30.2316 12.4595C29.8564 12.6982 29.4895 12.9368 29.1254 13.1814C27.4802 14.2374 25.999 15.6152 24.4988 16.688L24.4777 16.7063C22.8919 17.9403 21.4411 19.3784 20.1104 20.8102C19.2685 21.7084 18.4509 22.5715 17.5701 23.3801L18.5284 23.2414C16.5226 22.3938 14.7511 20.0651 12.8595 18.2053C12.5481 17.8939 12.2303 17.5868 11.9022 17.2957Z" fill="var(--stroke-0, #666666)"/>
</g>
</svg>
