<svg xmlns="http://www.w3.org/2000/svg" viewBox="0 0 146.106 6.78407" preserveAspectRatio="none"><path d="M0.26329 5.74712C0.141803 5.82737 0.052176 5.94999 0.0167532 6.09246C-0.0186943 6.23488 0.00254732 6.38477 0.0763193 6.51004C0.150091 6.6353 0.270879 6.72657 0.412625 6.76463C0.554396 6.80274 0.705095 6.78382 0.834197 6.7165C0.834197 6.7165 0.834197 6.7165 0.834197 6.7165C2.91198 5.81148 5.34279 5.21117 7.66783 4.68337C10.2745 4.10962 12.9051 3.68782 15.5474 3.41631C21.4181 3.30804 28.0536 4.95973 34.4538 5.40814C35.082 5.46685 35.7259 5.51312 36.3513 5.54824C45.1404 5.95483 53.7576 5.251 62.3586 4.66296C71.9666 4.11392 81.6894 2.44812 90.963 2.56132C96.8978 2.88148 102.707 4.41565 108.6 6.00054C116.923 7.45202 124.748 6.35404 132.725 6.08991L132.742 6.08907C134.613 5.94963 136.48 5.76816 138.338 5.54579C139.703 5.38569 141.069 5.18955 142.406 5.03669C143.46 4.92459 144.453 4.84459 145.461 5.01357C145.608 5.03406 145.757 4.99729 145.877 4.90957C145.997 4.82187 146.077 4.69071 146.1 4.54461C146.123 4.39852 146.087 4.24909 146 4.12887C145.913 4.00863 145.782 3.92775 145.636 3.90225C145.636 3.90225 145.636 3.90225 145.636 3.90225C144.534 3.67761 143.365 3.72838 142.292 3.80889C140.907 3.92096 139.557 4.07076 138.198 4.18635C136.351 4.34773 134.503 4.4696 132.65 4.55171L132.668 4.55087C124.781 4.59921 116.528 5.38113 109.168 3.90486C103.374 2.20671 97.3644 0.476047 91.1302 0.0329969C81.1511 -0.244822 71.7835 1.30973 62.1639 1.77357C53.5812 2.29437 44.9617 2.94737 36.5197 2.55297C35.9232 2.51948 35.3131 2.47711 34.7247 2.42523C28.2831 2.02771 22.2443 0.551509 15.2344 1.06402C12.5124 1.5079 9.83379 2.135 7.20749 2.94323C4.83469 3.69931 2.54 4.46228 0.26329 5.74712Z" fill="#000"/></svg>
