<svg preserveAspectRatio="none" width="100%" height="100%" overflow="visible" style="display: block;" viewBox="0 0 110 33.0161" fill="none" xmlns="http://www.w3.org/2000/svg">
<g id="Group 1">
<path id="Vector" d="M83.3138 32.4672C79.0494 32.3267 77.7032 28.4072 76.1952 24.6343C75.8106 23.6666 75.0322 23.0317 74.0432 22.4272C74.034 22.238 74.6873 21.6916 74.9803 21.6061C77.3735 20.9284 79.3455 19.4601 79.8797 16.9967C80.0567 16.1847 79.7668 14.9881 79.2906 14.402C78.8724 13.8892 77.6025 13.4649 76.9126 13.5962C73.5456 14.2341 72.1658 16.9906 72.2483 20.0584L72.5718 32.2748H65.4807C65.6211 29.9763 65.7677 27.8578 65.7677 25.547L65.7585 5.42747C65.7585 3.62646 65.5998 2.03607 65.4502 0H72.6207C72.465 2.34438 72.3154 4.24307 72.3185 6.33409L72.3337 15.8734C74.6629 12.3507 77.9718 10.0674 82.0073 10.5161C83.8511 10.7206 85.411 11.7371 86.0978 13.1444C86.9372 14.866 86.6381 16.7861 85.411 18.3246C83.5611 20.6476 80.7741 21.6122 77.8925 22.1006C84.1716 22.9676 83.9824 26.9725 86.8518 31.0874C87.6607 31.0935 88.198 31.5727 88.0453 32.2565C86.5251 32.3969 84.8707 32.516 83.3108 32.4641L83.3138 32.4672Z" fill="var(--fill-0, #4EA448)"/>
<path id="Vector_2" d="M21.3497 28.682L20.7056 32.2809L0 32.2748C0.152629 30.3548 0.317467 28.627 0.317467 26.768V5.73578C0.314415 3.96529 0.152629 2.3749 0.0122103 0.463991L8.33963 0.457886C8.17784 2.88773 8.04963 4.95127 8.04963 7.26512V31.179C12.6987 31.2309 16.8075 30.3945 21.3497 28.682Z" fill="var(--fill-0, #4EA448)"/>
<path id="Vector_3" d="M29.378 32.9922C26.2735 33.0136 23.8589 31.24 23.3156 28.5415C22.0976 22.4913 28.4042 21.3314 33.7309 19.4144C35.6571 18.7214 37.3208 17.2867 37.5131 15.2323C37.6352 13.9228 37.2078 12.6254 36.2157 11.9874C33.6149 10.3207 31.5148 13.1841 29.7778 15.7574C28.7186 17.3233 26.5055 18.0956 25.0219 16.5785C24.3565 15.9008 24.2222 14.4265 24.329 13.4161C28.4652 10.9893 33.157 9.85675 37.7664 10.8672C41.6035 11.7066 43.8197 14.7226 43.841 18.5413L43.8929 27.4304C43.9021 29.0452 44.479 30.66 44.882 32.2809L37.8061 32.287L37.3452 27.232C35.941 30.4341 33.2242 32.9739 29.381 33.0014L29.378 32.9922ZM31.9024 29.1276C34.3048 29.8419 36.4294 27.9341 36.9819 25.6569C37.5253 23.4254 37.3849 20.9773 37.391 18.9015L32.2626 21.5908C30.8005 22.357 29.7687 23.6941 29.6985 25.1288C29.6252 26.6673 30.1014 28.5934 31.9024 29.1276Z" fill="var(--fill-0, #4EA448)"/>
<path id="Vector_4" d="M105.396 28.685C107.417 27.5372 108.598 25.6538 109.209 23.5719L109.859 23.5353C110.503 23.4987 108.98 29.1093 104.471 31.6399C101.04 33.5661 96.8185 33.4775 93.3202 31.3285C90.3165 29.4817 88.3262 26.1086 88.1034 22.2044C87.7493 15.968 92.1633 10.9679 98.4424 10.5069C104.309 10.0765 109.636 13.7823 109.7 19.8203L94.9778 19.8295C95.0449 22.3143 95.805 24.7106 97.2153 26.7436C99.0957 29.4573 102.365 30.4097 105.396 28.6881V28.685ZM102.936 18.6542L102.142 13.6511C101.455 12.5705 100.588 11.6547 99.4467 11.5601C96.4064 11.3067 94.8221 15.0217 94.8801 18.6848L102.933 18.6573L102.936 18.6542Z" fill="var(--fill-0, #4EA448)"/>
<path id="Vector_5" d="M47.2813 32.2748L47.5468 21.8992C47.6384 18.2788 47.4766 14.8447 47.2629 11.2243L54.409 11.209C54.2381 13.1596 54.1068 14.8447 54.2442 16.9051C55.7155 12.9063 58.7925 10.2231 63.1058 10.6321C63.7865 11.612 63.759 13.1474 63.1852 14.1853C62.5502 15.3331 61.2559 15.7787 59.6777 15.736C57.4646 15.678 54.5281 16.9174 54.2808 19.4907C53.8657 23.8009 54.1465 28.0928 54.3785 32.2779H47.2843L47.2813 32.2748Z" fill="var(--fill-0, #4EA448)"/>
</g>
</svg>
